<?xml version="1.0" standalone="no"?>
<!DOCTYPE svg PUBLIC "-//W3C//DTD SVG 20010904//EN"
 "http://www.w3.org/TR/2001/REC-SVG-20010904/DTD/svg10.dtd">
<svg version="1.0" xmlns="http://www.w3.org/2000/svg"
 width="768.000000pt" height="768.000000pt" viewBox="0 0 768.000000 768.000000"
 preserveAspectRatio="xMidYMid meet">
<metadata>
Created by potrace 1.11, written by Peter Selinger 2001-2013
</metadata>
<g transform="translate(0.000000,768.000000) scale(0.100000,-0.100000)"
fill="#000000" stroke="none">
<path d="M1243 7620 c-45 -27 -66 -72 -58 -125 6 -46 16 -57 225 -245 45 -41
100 -91 120 -110 21 -19 75 -69 121 -110 155 -139 183 -165 210 -190 14 -14
58 -53 97 -88 101 -90 121 -109 172 -156 25 -24 70 -64 100 -91 61 -53 75 -71
57 -73 -27 -2 -74 -14 -166 -44 -53 -18 -98 -32 -101 -33 -20 -5 -106 -45
-184 -86 -235 -120 -461 -294 -716 -549 -147 -148 -195 -201 -315 -345 -22
-26 -54 -64 -71 -84 -63 -73 -77 -126 -49 -182 16 -30 44 -50 149 -108 32 -18
81 -46 108 -62 27 -16 55 -29 63 -29 8 0 15 -3 15 -7 0 -5 -19 -9 -41 -10 -54
-3 -99 -33 -126 -80 -21 -38 -22 -49 -22 -375 0 -330 0 -337 22 -379 14 -26
37 -50 60 -62 38 -20 124 -27 135 -11 4 5 16 14 26 20 29 16 56 56 65 95 4 19
6 178 6 355 -1 311 -2 322 -23 356 -12 19 -22 38 -22 41 0 3 35 -11 78 -32 42
-21 127 -59 187 -85 61 -26 119 -51 130 -56 40 -18 293 -109 373 -134 45 -14
117 -37 160 -50 42 -14 89 -27 104 -30 15 -2 32 -7 38 -11 5 -3 18 -8 27 -10
10 -2 108 -26 218 -54 110 -28 210 -54 223 -56 39 -9 65 -15 122 -29 l55 -14
-40 -1 c-22 -1 -365 -2 -762 -2 -398 0 -723 -3 -724 -7 0 -4 -2 -52 -4 -107
-4 -143 -32 -209 -115 -275 -148 -117 -367 -67 -449 104 -26 53 -28 67 -30
198 l-1 88 -92 -2 c-124 -2 -193 -26 -265 -93 -29 -28 -53 -56 -53 -63 0 -6
-4 -12 -10 -12 -5 0 -9 -3 -8 -7 1 -5 -4 -21 -11 -38 -7 -16 -16 -48 -20 -70
-4 -22 -6 -656 -6 -1410 1 -1458 -1 -1398 48 -1484 24 -42 105 -121 124 -121
7 0 13 -4 13 -9 0 -8 20 -14 90 -29 14 -3 437 -6 940 -6 l915 -1 0 155 0 155
-898 1 c-629 1 -902 5 -909 12 -12 12 -16 2071 -4 2090 4 7 497 11 1661 11
l1655 1 0 -28 c0 -15 1 -151 3 -302 l2 -275 152 -1 c104 -1 153 2 156 10 2 6
3 241 2 522 l-1 511 32 -18 c197 -110 285 -180 408 -324 102 -120 109 -127
137 -165 15 -19 36 -45 47 -58 11 -13 35 -42 54 -65 71 -89 153 -185 211 -250
61 -69 108 -137 102 -148 -2 -3 -6 -16 -9 -30 -3 -13 -8 -35 -11 -49 -3 -14
-8 -38 -11 -55 -3 -16 -9 -43 -14 -60 -5 -16 -12 -43 -15 -60 -5 -31 -11 -58
-21 -98 -18 -72 -14 -92 21 -121 51 -43 128 -83 174 -92 14 -3 29 -8 35 -12
31 -19 168 -21 246 -4 74 16 183 67 226 105 62 55 70 63 96 102 53 79 54 72
-43 264 -85 168 -97 199 -82 215 28 28 42 143 25 213 -10 43 -57 133 -70 133
-4 0 -15 7 -25 14 -18 14 -17 19 11 123 27 99 58 224 68 281 2 12 6 34 9 50 8
42 16 92 20 121 2 14 4 26 5 26 1 0 3 20 6 45 2 25 6 68 9 95 3 28 8 99 10
159 3 60 6 111 8 112 3 3 188 -39 252 -58 22 -6 47 -12 55 -13 34 -5 84 -16
90 -20 3 -2 17 -6 31 -9 13 -2 56 -12 94 -21 67 -16 85 -20 123 -29 9 -2 67
-16 127 -31 61 -15 117 -28 125 -30 8 -2 35 -8 60 -14 51 -13 62 -16 148 -35
9 -2 35 -9 57 -14 22 -6 51 -13 65 -16 37 -7 54 -12 170 -41 121 -31 168 -33
209 -9 30 18 61 71 61 105 0 31 -28 81 -63 112 -18 16 -81 74 -141 130 -60 56
-139 129 -174 162 -36 33 -77 71 -92 85 -14 14 -75 70 -134 125 -135 125 -148
137 -287 266 -133 124 -143 133 -279 259 -57 52 -132 123 -168 158 -36 34 -67
62 -68 62 -2 0 -21 17 -42 38 -21 20 -87 82 -147 137 -60 55 -123 114 -140
130 -34 32 -239 223 -285 265 -86 79 -248 229 -276 255 -17 17 -80 75 -139
130 -60 55 -139 129 -177 164 -61 58 -128 108 -128 96 0 -2 -16 3 -35 11 -19
8 -35 12 -35 9 0 -3 -13 1 -30 10 -16 8 -33 15 -37 15 -5 0 -33 8 -63 17 -30
9 -60 17 -65 18 -6 2 -62 19 -125 38 -214 67 -415 128 -433 132 -9 2 -21 6
-25 9 -5 3 -19 7 -33 10 -13 3 -69 19 -124 36 -55 17 -104 33 -110 34 -5 2
-17 5 -25 8 -39 15 -157 48 -168 48 -7 0 -20 4 -30 10 -9 5 -87 30 -172 56
-300 89 -384 114 -547 165 -38 11 -81 24 -98 29 -58 16 -420 128 -450 140 -16
6 -30 11 -30 10 0 -3 -83 20 -130 35 -22 7 -74 23 -115 35 -41 12 -100 31
-130 41 -59 19 -199 61 -215 65 -5 1 -50 14 -100 29 -118 36 -153 39 -192 15z
m1952 -3424 c66 -19 63 -15 61 -62 -1 -24 2 -44 6 -44 4 0 8 -9 8 -19 0 -21
78 -94 91 -86 4 3 10 1 13 -3 8 -14 85 -3 115 16 34 22 71 64 65 74 -8 12 14
10 74 -9 30 -10 56 -23 59 -30 5 -13 -23 -64 -54 -99 -155 -173 -447 -104
-508 121 -9 32 -15 145 -9 157 3 3 19 2 37 -3 17 -6 37 -12 42 -13z"/>
<path d="M840 3070 c-5 -3 -9 -140 -9 -308 l0 -302 47 0 c439 -1 553 -1 560 4
5 3 8 141 8 308 l-1 303 -298 0 c-164 0 -302 -2 -307 -5z"/>
<path d="M1743 3052 c2 -12 2 -24 -2 -26 -3 -2 -4 -57 -1 -121 3 -64 3 -118 2
-120 -5 -4 -2 -318 2 -323 7 -6 598 -3 604 3 4 3 7 142 7 308 l1 302 -309 0
-308 0 4 -23z"/>
<path d="M2649 2840 c-1 -265 1 -373 6 -378 5 -5 596 -3 604 2 3 2 6 141 6
308 l0 303 -307 0 -308 1 -1 -236z"/>
<path d="M3737 2464 c-1 -2 -25 -6 -52 -10 -58 -7 -58 -7 -175 -39 -46 -12
-133 -46 -187 -73 -68 -35 -211 -130 -247 -165 -13 -12 -32 -29 -42 -38 -29
-24 -96 -99 -129 -144 -17 -22 -36 -46 -42 -53 -7 -7 -13 -17 -13 -22 0 -5 -6
-15 -13 -22 -17 -17 -109 -198 -101 -198 4 0 2 -6 -4 -12 -11 -15 -57 -179
-68 -248 -15 -92 -7 -395 12 -440 4 -8 8 -22 9 -30 18 -116 107 -308 198 -432
90 -122 188 -215 314 -300 104 -70 307 -160 368 -163 6 0 16 -4 23 -8 6 -5 12
-6 12 -3 0 2 14 1 30 -4 74 -21 257 -29 380 -16 53 6 72 9 123 22 12 3 33 7
46 10 90 19 344 138 394 185 8 8 30 25 49 39 63 47 193 186 247 265 51 75 118
203 136 257 4 12 8 25 9 28 4 9 25 85 26 92 1 4 6 22 11 40 13 42 17 65 25
158 10 111 10 122 3 158 -4 17 -3 35 2 38 5 3 7 9 4 14 -2 4 -7 25 -10 46 -3
22 -11 64 -17 94 -6 30 -11 60 -12 67 -1 7 -5 16 -9 19 -4 4 -7 14 -7 23 0 21
-55 161 -80 206 -11 19 -29 51 -40 71 -28 49 -52 86 -70 106 -8 9 -37 43 -65
75 -94 110 -269 246 -365 283 -19 7 -40 17 -47 22 -16 13 -181 68 -202 68 -10
0 -21 3 -25 7 -7 7 -13 9 -91 19 -50 6 -303 13 -308 8z m252 -318 c59 -7 170
-34 186 -45 6 -4 29 -13 53 -21 23 -7 42 -17 42 -22 0 -5 4 -7 9 -4 5 3 14 -1
21 -9 7 -8 19 -15 26 -15 8 0 14 -4 14 -10 0 -5 6 -10 13 -10 36 0 205 -167
268 -265 101 -156 140 -283 145 -475 4 -136 -31 -306 -83 -403 -10 -18 -17
-34 -18 -37 0 -3 -21 -37 -47 -75 -51 -77 -142 -176 -198 -215 -19 -13 -40
-29 -47 -36 -22 -21 -168 -91 -233 -112 -94 -30 -121 -34 -260 -37 -98 -3
-145 1 -209 16 -77 18 -230 74 -241 89 -3 4 -21 15 -40 26 -19 10 -37 21 -40
24 -3 3 -21 17 -40 31 -74 55 -219 224 -220 256 0 6 -4 13 -8 15 -7 3 -54 95
-55 108 0 3 -7 21 -15 39 -15 38 -17 44 -36 141 -12 64 -14 220 -3 292 12 79
62 234 78 244 5 3 9 14 9 25 0 10 5 19 10 19 6 0 10 5 10 10 0 14 52 93 67
103 7 4 13 12 13 18 0 18 124 136 195 184 72 50 183 105 210 105 8 0 15 5 15
12 0 6 2 9 6 6 3 -3 26 1 52 8 26 8 76 17 112 20 36 4 66 7 68 9 4 3 109 -2
171 -9z"/>
<path d="M3673 1855 c-52 -16 -87 -49 -103 -99 -16 -51 -17 -642 -1 -702 11
-41 37 -71 81 -95 38 -20 681 -21 730 -1 39 16 75 54 88 92 21 58 -7 149 -53
174 -11 6 -23 16 -27 21 -4 6 -100 11 -245 12 -131 1 -246 2 -255 2 -16 1 -17
22 -17 241 0 231 -1 242 -22 280 -39 69 -103 96 -176 75z"/>
<path d="M835 2162 c-2 -3 -5 -141 -5 -309 l0 -303 308 2 307 3 0 305 0 305
-302 1 c-167 1 -305 -1 -308 -4z"/>
<path d="M1744 2158 c-3 -5 -4 -26 -3 -48 2 -21 1 -41 -1 -44 -3 -2 -3 -57 0
-121 3 -64 3 -118 0 -120 -3 -2 -4 -64 -2 -139 l3 -136 307 0 307 0 0 308 0
308 -303 1 c-166 0 -305 -4 -308 -9z"/>
</g>
</svg>
